<?xml version="1.0" standalone="no"?>
<!DOCTYPE svg PUBLIC "-//W3C//DTD SVG 20010904//EN"
 "http://www.w3.org/TR/2001/REC-SVG-20010904/DTD/svg10.dtd">
<svg version="1.0" xmlns="http://www.w3.org/2000/svg"
 width="1280.000000pt" height="1280.000000pt" viewBox="0 0 1280.000000 1280.000000"
 preserveAspectRatio="xMidYMid meet">
<metadata>
Created by potrace 1.14, written by Peter Selinger 2001-2017
</metadata>
<g transform="translate(0.000000,1280.000000) scale(0.100000,-0.100000)"
fill="#000000" stroke="none">
<path d="M6017 9763 c-1 -1 -74 -4 -162 -8 -88 -3 -194 -8 -235 -10 -41 -2
-149 -7 -240 -11 -312 -12 -766 -31 -779 -33 -2 -1 33 -29 79 -63 92 -71 370
-283 385 -296 20 -16 179 -138 221 -169 24 -18 47 -33 52 -33 4 0 23 13 42 30
19 16 40 29 47 30 6 0 13 4 15 8 2 5 55 46 118 92 63 46 156 114 205 150 50
37 168 123 263 193 l172 125 -91 -1 c-50 -1 -91 -3 -92 -4z"/>
<path d="M6580 9765 c0 -3 616 -454 709 -519 31 -22 62 -45 68 -52 7 -7 28
-22 48 -34 l36 -22 52 40 c29 22 115 88 192 147 77 59 217 166 312 238 94 72
170 133 168 135 -2 3 -35 6 -72 7 -171 8 -378 17 -488 20 -66 3 -163 7 -215
10 -52 3 -158 7 -235 10 -77 3 -196 8 -265 11 -223 10 -310 12 -310 9z"/>
<path d="M6366 9642 c-4 -7 -282 -199 -350 -242 -13 -8 -62 -42 -110 -75 -47
-33 -162 -112 -255 -175 -153 -104 -168 -117 -159 -135 6 -11 83 -137 171
-280 88 -143 196 -318 240 -390 44 -71 90 -146 103 -165 12 -19 55 -89 96
-155 40 -67 122 -200 183 -298 l110 -177 14 28 c8 15 17 29 20 32 3 3 12 16
19 29 31 55 54 93 130 221 45 74 85 140 89 146 4 5 13 19 19 30 6 10 143 239
304 508 252 420 291 491 277 500 -9 6 -59 40 -112 76 -54 36 -102 70 -109 75
-6 6 -38 28 -71 51 -33 22 -96 66 -140 96 -326 225 -449 308 -456 308 -4 0
-10 -4 -13 -8z"/>
<path d="M4389 9626 c-2 -3 -33 -7 -69 -11 -36 -3 -72 -8 -80 -10 -8 -2 -42
-7 -75 -10 -33 -3 -71 -8 -85 -10 -14 -2 -52 -6 -85 -10 -33 -3 -71 -8 -85
-10 -14 -2 -45 -6 -70 -9 -240 -29 -308 -37 -326 -41 -15 -3 -35 -37 -79 -132
-70 -155 -124 -270 -158 -340 -14 -29 -24 -53 -22 -53 4 0 55 27 225 120 58
32 137 75 175 95 39 21 93 50 120 65 28 15 86 47 130 70 44 24 94 51 111 61
17 9 116 63 220 119 104 57 191 104 193 106 2 2 -5 4 -16 4 -11 0 -22 -2 -24
-4z"/>
<path d="M8379 9606 c23 -14 45 -26 47 -26 2 0 68 -35 146 -78 79 -43 179 -98
223 -122 172 -93 214 -116 334 -182 68 -37 127 -68 131 -68 4 0 13 -7 20 -15
7 -9 15 -14 17 -11 2 2 52 -23 110 -55 58 -33 107 -58 109 -57 1 2 -24 59 -57
127 -32 68 -59 125 -59 127 0 2 -25 56 -55 119 -30 64 -55 120 -55 125 0 18
-29 27 -110 35 -25 3 -58 7 -75 10 -16 2 -56 7 -88 10 -32 4 -66 8 -75 10 -9
1 -46 6 -82 10 -36 4 -73 9 -82 10 -9 2 -45 6 -80 10 -35 3 -74 8 -88 10 -28
4 -90 13 -152 20 -24 3 -61 8 -83 11 l-40 5 44 -25z"/>
<path d="M4335 9366 c-204 -111 -288 -157 -365 -198 -36 -20 -139 -76 -230
-125 -91 -50 -205 -112 -255 -138 -137 -73 -127 -55 -93 -165 15 -52 35 -117
43 -145 7 -27 44 -147 80 -265 37 -118 84 -271 105 -340 21 -69 47 -150 57
-181 l18 -57 255 210 c140 115 264 217 275 226 11 9 133 109 270 221 138 113
266 218 286 235 20 17 55 47 79 66 24 19 89 73 144 119 56 46 111 90 124 99
12 8 21 18 20 22 -2 5 -41 36 -87 70 -47 35 -89 67 -95 72 -6 5 -78 58 -161
119 -82 60 -157 115 -165 122 -9 7 -31 24 -50 38 -19 14 -51 37 -70 51 l-35
26 -150 -82z"/>
<path d="M8155 9350 c-71 -53 -221 -165 -333 -247 l-203 -151 88 -73 c48 -40
90 -76 93 -79 3 -3 21 -17 42 -32 20 -15 42 -34 50 -41 7 -7 175 -145 373
-307 198 -162 362 -297 365 -300 3 -3 28 -24 55 -45 28 -22 52 -42 55 -45 3
-3 28 -24 55 -45 28 -22 52 -42 55 -45 3 -3 41 -35 85 -70 44 -36 88 -72 99
-80 10 -8 24 -21 31 -27 11 -11 17 -1 34 50 30 92 62 198 71 232 8 29 86 287
154 505 18 58 41 132 50 165 10 33 22 73 28 88 13 34 14 33 -82 84 -73 40
-131 71 -247 134 -32 17 -87 47 -123 67 -61 32 -90 49 -222 121 -29 15 -84 45
-123 66 -38 21 -90 49 -115 63 -25 13 -81 44 -125 67 l-80 43 -130 -98z"/>
<path d="M9601 9132 c59 -119 227 -465 326 -672 31 -63 113 -232 182 -375 70
-143 156 -320 191 -393 l64 -132 253 0 c194 1 252 4 246 13 -4 7 -64 84 -133
172 -69 88 -200 255 -290 370 -90 116 -177 226 -192 245 -16 19 -32 40 -36 45
-16 21 -204 262 -230 294 -86 109 -125 158 -192 245 -41 54 -83 107 -94 119
-10 12 -45 57 -77 99 -33 42 -63 79 -68 82 -5 3 18 -47 50 -112z"/>
<path d="M3180 9196 c-25 -34 -258 -331 -285 -364 -8 -9 -89 -114 -181 -232
-92 -118 -170 -217 -173 -220 -3 -3 -28 -34 -56 -70 -27 -36 -54 -70 -60 -76
-5 -6 -17 -22 -25 -34 -8 -12 -20 -28 -25 -34 -9 -9 -325 -411 -447 -568 l-29
-37 254 -1 255 0 52 107 c30 60 55 114 56 121 1 8 10 22 18 31 9 10 16 21 16
26 0 4 30 69 66 144 37 75 104 213 149 306 45 94 122 251 170 350 151 310 227
470 227 475 0 3 5 12 12 20 18 22 47 90 38 90 -4 0 -18 -16 -32 -34z"/>
<path d="M5318 8887 c-7 -7 -65 -55 -128 -107 -63 -52 -117 -97 -120 -100 -3
-3 -30 -25 -60 -50 -30 -25 -66 -55 -80 -67 -14 -12 -86 -72 -160 -133 -170
-141 -220 -182 -234 -195 -6 -6 -56 -48 -111 -93 -55 -46 -109 -91 -120 -100
-11 -10 -74 -62 -140 -117 -66 -55 -122 -102 -125 -105 -3 -3 -30 -25 -60 -50
-30 -25 -57 -47 -60 -50 -3 -3 -32 -27 -65 -55 -33 -27 -69 -58 -79 -67 -11
-10 -23 -18 -28 -18 -4 0 -8 -4 -8 -10 0 -16 1025 -13 1037 2 5 7 47 103 93
213 45 110 114 274 152 365 39 91 106 251 150 355 44 105 86 204 93 220 45
103 74 175 70 175 -2 0 -10 -6 -17 -13z"/>
<path d="M7446 8878 c8 -25 134 -327 165 -395 10 -24 19 -45 19 -48 0 -3 9
-27 21 -53 43 -97 201 -470 229 -542 12 -30 32 -77 44 -105 12 -27 28 -66 36
-85 7 -19 17 -39 22 -45 4 -5 8 -17 8 -27 0 -17 26 -18 528 -18 416 1 524 3
511 13 -26 20 -554 461 -559 467 -3 3 -57 48 -120 100 -63 52 -117 97 -120
100 -3 3 -30 25 -60 50 -30 25 -66 55 -80 66 -293 251 -650 541 -644 522z"/>
<path d="M9583 8828 c-6 -23 -36 -128 -66 -233 -155 -537 -295 -1030 -293
-1032 2 -2 210 -2 463 -1 l460 3 -109 260 c-61 143 -116 274 -123 290 -7 17
-18 41 -23 55 -6 14 -20 45 -30 70 -11 25 -32 74 -47 110 -59 143 -188 447
-204 483 l-17 39 -11 -44z"/>
<path d="M3145 8793 c-15 -37 -37 -88 -48 -112 -10 -25 -87 -205 -169 -400
-82 -196 -163 -387 -179 -426 -34 -79 -45 -105 -58 -137 -5 -13 -21 -49 -35
-82 -14 -32 -26 -62 -26 -67 0 -5 202 -9 460 -9 253 0 460 3 460 6 0 3 -45
164 -101 357 -55 194 -137 480 -182 637 -44 157 -83 289 -87 293 -4 4 -19 -23
-35 -60z"/>
<path d="M5451 8737 c-8 -18 -24 -54 -36 -82 -13 -27 -42 -95 -65 -150 -43
-103 -74 -175 -90 -210 -5 -11 -53 -121 -105 -245 -53 -124 -104 -243 -114
-265 -10 -22 -33 -76 -51 -120 -19 -44 -38 -86 -43 -92 -7 -10 123 -13 607
-13 339 0 616 3 616 7 0 5 -16 34 -35 66 -19 32 -35 60 -35 63 0 3 -11 20 -25
38 -14 18 -25 36 -25 39 0 4 -27 52 -60 107 -33 55 -60 105 -60 110 0 6 -4 10
-10 10 -5 0 -10 4 -10 10 0 5 -27 55 -60 110 -33 55 -60 105 -60 110 0 6 -4
10 -10 10 -5 0 -10 4 -10 9 0 5 -34 66 -75 136 -41 69 -75 128 -75 129 0 2
-29 52 -65 111 -36 59 -65 110 -65 115 0 4 -6 12 -13 18 -10 8 -16 3 -26 -21z"/>
<path d="M7239 8659 c-35 -61 -76 -129 -90 -152 -32 -51 -522 -893 -538 -925
l-12 -22 615 0 615 1 -33 77 c-19 42 -75 174 -126 292 -51 118 -100 233 -110
255 -10 22 -30 69 -45 105 -15 36 -36 83 -46 105 -33 73 -139 325 -139 333 0
4 -7 15 -14 25 -12 15 -20 6 -77 -94z"/>
<path d="M1900 7383 c0 -1 67 -71 149 -155 82 -84 184 -190 227 -234 123 -127
490 -506 621 -640 65 -67 222 -229 350 -360 127 -132 273 -282 323 -334 114
-118 531 -547 676 -695 59 -60 101 -101 92 -90 -17 23 -58 72 -73 89 -6 6 -26
31 -45 56 -19 25 -45 56 -56 70 -12 14 -117 142 -234 285 -116 143 -227 278
-245 300 -34 41 -97 118 -118 145 -141 173 -374 459 -412 506 -27 33 -66 80
-86 105 -20 24 -151 184 -290 355 -140 170 -270 330 -289 354 -19 24 -39 48
-45 54 -5 6 -39 47 -75 91 -35 44 -69 85 -75 90 -8 9 -395 17 -395 8z"/>
<path d="M2508 7350 c14 -19 28 -37 32 -40 5 -4 75 -90 107 -130 7 -8 67 -83
135 -166 68 -83 139 -170 158 -194 19 -24 87 -107 150 -185 63 -77 133 -163
155 -190 22 -28 45 -56 52 -63 8 -8 26 -30 41 -50 15 -21 29 -39 32 -42 3 -3
24 -27 45 -55 22 -27 43 -52 46 -55 3 -3 61 -75 130 -160 201 -249 221 -275
228 -280 4 -3 22 -25 41 -50 19 -25 87 -108 150 -186 63 -77 129 -158 145
-179 17 -21 35 -43 40 -49 6 -6 49 -58 95 -116 46 -58 90 -111 97 -118 7 -8
26 -30 41 -50 15 -21 29 -39 32 -42 3 -3 53 -63 111 -135 246 -304 362 -445
370 -450 4 -3 -14 38 -41 92 -50 102 -162 334 -165 343 -1 3 -32 68 -69 145
-38 77 -97 199 -131 270 -34 72 -95 198 -135 280 -39 83 -96 200 -125 260 -29
61 -86 178 -125 260 -40 83 -106 220 -148 305 -41 85 -98 205 -127 265 -29 61
-81 169 -116 240 -34 72 -63 132 -64 135 0 3 -47 100 -104 215 l-102 211 -504
-1 -504 0 27 -35z"/>
<path d="M3810 7379 c0 -8 17 -33 386 -569 78 -113 234 -340 347 -505 114
-165 211 -307 217 -315 6 -8 45 -65 88 -127 42 -62 169 -246 282 -410 113
-164 212 -307 220 -319 8 -12 30 -43 48 -69 17 -25 32 -50 32 -55 0 -4 4 -10
8 -12 7 -3 97 -131 216 -308 28 -41 53 -77 56 -80 3 -3 32 -45 65 -95 33 -49
63 -92 66 -95 3 -3 39 -54 78 -113 72 -107 97 -131 68 -65 -16 35 -61 150 -63
158 0 3 -6 19 -13 35 -7 17 -27 66 -43 110 -17 44 -38 100 -48 125 -9 25 -65
171 -125 325 -59 154 -113 294 -120 310 -11 25 -96 246 -190 490 -13 33 -35
92 -50 130 -15 39 -30 79 -35 90 -9 21 -83 211 -190 490 -34 88 -79 205 -101
260 -44 113 -148 383 -203 525 l-36 96 -480 -1 c-264 0 -480 -2 -480 -6z"/>
<path d="M4950 7368 c0 -9 4 -19 9 -22 5 -3 12 -18 15 -33 4 -16 15 -50 25
-78 24 -63 115 -318 117 -325 0 -3 4 -12 7 -20 4 -8 27 -71 51 -140 24 -69 63
-177 86 -240 23 -63 46 -126 50 -140 5 -14 26 -74 48 -135 60 -167 132 -367
216 -605 70 -196 96 -268 129 -355 7 -16 12 -32 13 -35 0 -3 3 -12 7 -20 9
-24 57 -161 73 -210 8 -25 19 -54 24 -65 20 -45 110 -303 110 -315 0 -32 12 2
16 46 2 27 7 74 10 104 3 30 7 77 9 105 2 27 6 70 9 95 3 25 8 74 12 110 3 36
7 81 9 100 2 19 6 67 10 105 3 39 8 86 10 105 2 19 6 64 10 100 3 36 8 85 10
110 5 44 10 94 20 203 11 121 17 173 20 197 2 14 7 62 10 106 4 45 8 94 10
110 2 16 6 63 10 104 4 41 9 93 11 115 6 59 14 143 19 200 6 62 14 145 21 205
2 25 6 68 9 95 5 55 16 175 20 215 1 14 6 57 10 95 4 39 8 84 10 100 l3 30
-629 0 c-589 1 -629 0 -629 -17z"/>
<path d="M6569 7380 c-2 -8 9 -139 16 -197 2 -16 6 -57 9 -93 4 -36 8 -85 11
-110 6 -60 13 -130 21 -215 3 -38 8 -83 10 -100 1 -16 6 -64 9 -105 3 -41 8
-86 10 -100 2 -14 7 -61 11 -105 7 -85 8 -97 18 -190 4 -33 8 -85 11 -115 3
-30 8 -82 11 -115 7 -65 8 -79 19 -200 3 -44 8 -91 10 -105 4 -24 8 -73 20
-210 4 -36 8 -81 10 -100 2 -19 6 -62 10 -95 3 -33 8 -82 11 -110 2 -27 6 -70
9 -95 4 -56 15 -163 20 -210 2 -19 7 -68 11 -108 3 -40 9 -70 12 -67 6 5 41
100 47 125 2 8 4 16 5 18 2 1 3 5 5 10 1 4 7 20 13 35 7 16 12 33 12 38 0 6 5
20 12 32 7 12 13 27 14 32 3 11 92 261 119 335 19 50 102 283 145 405 15 44
47 132 70 195 23 63 66 183 95 265 30 83 71 200 93 260 58 160 237 661 287
800 24 66 50 138 58 160 l15 41 -629 -1 c-346 0 -630 -2 -630 -5z"/>
<path d="M7983 7333 c-12 -30 -23 -59 -23 -66 0 -7 -4 -17 -9 -22 -4 -6 -32
-73 -61 -150 -29 -77 -58 -153 -65 -170 -7 -16 -26 -66 -43 -110 -41 -107
-117 -306 -146 -380 -13 -33 -34 -87 -46 -120 -13 -33 -29 -73 -36 -90 -7 -16
-51 -131 -99 -255 -47 -124 -90 -234 -95 -245 -8 -19 -169 -435 -218 -565 -13
-36 -30 -78 -37 -95 -7 -16 -25 -64 -40 -105 -15 -41 -36 -94 -46 -117 -10
-24 -19 -47 -19 -51 0 -5 -6 -22 -14 -38 -7 -16 -35 -85 -61 -154 -26 -69 -51
-134 -56 -145 -19 -45 -106 -275 -104 -275 2 0 18 23 36 51 18 28 37 56 44 62
6 7 22 30 35 52 13 22 28 45 33 50 5 6 41 57 81 115 39 58 102 150 140 205 38
55 132 192 210 305 77 113 144 210 148 215 5 6 78 111 162 235 85 124 164 239
176 255 12 17 109 158 217 315 262 382 335 488 408 595 35 50 160 232 280 405
119 173 221 322 225 330 7 13 -46 15 -472 15 l-481 1 -24 -53z"/>
<path d="M9239 7295 c-47 -98 -193 -400 -296 -615 -36 -74 -89 -184 -118 -245
-131 -273 -270 -564 -400 -830 -38 -77 -69 -142 -70 -145 -1 -3 -24 -52 -52
-110 -28 -58 -80 -166 -116 -240 -74 -156 -179 -374 -261 -542 -31 -64 -56
-121 -56 -126 0 -6 -3 -12 -7 -14 -5 -1 -16 -21 -26 -43 -9 -22 -12 -33 -5
-24 7 8 58 71 113 140 55 68 102 126 105 129 3 3 46 55 95 115 49 61 139 171
199 245 61 74 116 142 123 150 6 8 96 119 200 246 103 127 204 250 223 274 47
59 268 330 288 355 10 11 64 79 122 150 58 72 107 132 110 135 3 3 42 51 88
108 45 56 91 112 101 125 22 25 198 242 251 307 19 24 85 105 145 179 244 300
281 346 287 356 4 7 -157 10 -497 10 l-503 0 -43 -90z"/>
<path d="M10354 7226 c-71 -87 -133 -164 -139 -170 -5 -6 -28 -34 -50 -61 -22
-28 -50 -61 -61 -75 -12 -14 -97 -117 -189 -230 -91 -113 -174 -214 -183 -225
-10 -11 -57 -69 -107 -130 -49 -60 -121 -149 -160 -196 -38 -47 -104 -128
-145 -179 -41 -51 -79 -98 -85 -104 -5 -6 -28 -34 -50 -61 -22 -28 -48 -59
-57 -70 -9 -11 -53 -65 -98 -120 -45 -55 -97 -118 -115 -140 -18 -22 -75 -92
-126 -155 -51 -63 -95 -117 -99 -120 -3 -3 -28 -34 -55 -69 -28 -35 -59 -73
-70 -86 -11 -13 -33 -40 -50 -61 -16 -21 -34 -43 -40 -49 -111 -124 29 16 498
499 150 154 308 317 352 362 44 45 184 189 310 319 127 131 266 275 310 320
254 261 590 608 653 674 41 42 118 121 173 177 54 55 99 102 99 105 0 2 -87 4
-193 4 l-193 0 -130 -159z"/>
<path d="M6389 7334 c-1 -5 -2 -27 -4 -49 -2 -39 -12 -135 -20 -205 -5 -41
-13 -129 -20 -220 -3 -36 -7 -81 -10 -100 -2 -19 -7 -69 -10 -110 -4 -41 -8
-91 -10 -110 -2 -19 -6 -64 -10 -100 -3 -36 -8 -85 -10 -110 -2 -25 -7 -74
-10 -110 -3 -36 -8 -85 -10 -110 -7 -71 -15 -160 -20 -225 -3 -33 -8 -80 -10
-105 -11 -107 -15 -149 -20 -210 -3 -36 -8 -81 -10 -100 -2 -19 -7 -69 -10
-110 -3 -41 -8 -91 -10 -110 -6 -53 -16 -161 -30 -315 -10 -109 -15 -159 -20
-210 -2 -27 -8 -81 -12 -120 -12 -121 -7 -175 30 -360 20 -99 38 -191 41 -205
4 -19 66 -331 111 -556 6 -29 33 -171 40 -209 30 -158 41 -205 47 -205 5 0 8
9 8 19 0 16 12 79 56 296 2 11 7 34 11 50 3 17 7 37 8 45 1 8 21 107 43 220
23 113 44 221 47 240 3 19 10 51 15 70 5 19 11 51 14 70 3 19 14 76 25 125 11
50 22 106 25 125 3 19 10 52 15 73 9 36 7 134 -3 207 -4 30 -10 97 -21 215 -1
17 -6 62 -10 100 -9 93 -12 126 -20 215 -4 41 -8 86 -11 100 -2 14 -6 59 -9
100 -4 41 -8 86 -10 100 -2 14 -7 61 -11 105 -9 108 -11 122 -18 180 -3 28 -8
76 -11 108 -2 33 -7 80 -10 105 -6 57 -15 151 -20 212 -2 25 -6 63 -9 85 -6
46 -18 176 -21 220 -1 17 -5 55 -8 85 -4 30 -9 80 -12 110 -11 128 -16 177
-20 210 -3 19 -7 64 -10 100 -3 36 -8 88 -11 115 -7 65 -13 125 -19 199 -4 52
-13 86 -16 60z"/>
<path d="M3746 7183 c60 -121 240 -495 274 -568 15 -33 67 -141 115 -240 48
-99 113 -234 145 -300 32 -66 90 -187 130 -270 40 -82 98 -204 130 -270 32
-66 85 -176 118 -245 33 -69 99 -206 147 -305 48 -99 100 -207 115 -240 15
-33 76 -158 134 -279 58 -120 106 -221 106 -226 0 -13 59 -70 384 -365 91 -82
224 -204 246 -225 14 -14 69 -63 121 -110 52 -47 99 -90 104 -95 6 -6 25 -24
44 -40 27 -24 33 -26 26 -10 -31 83 -58 156 -94 255 -23 63 -46 124 -51 135
-5 11 -39 101 -75 200 -187 507 -169 468 -276 620 -54 77 -103 145 -108 152
-6 7 -11 16 -11 22 0 5 -3 11 -8 13 -4 2 -99 134 -212 293 -112 160 -239 340
-282 400 -43 61 -84 118 -90 128 -7 11 -31 44 -54 75 -22 32 -58 82 -79 112
-58 83 -187 267 -560 795 -187 264 -343 482 -347 483 -4 2 -8 8 -8 13 0 8
-119 179 -125 179 -1 0 17 -39 41 -87z"/>
<path d="M9020 7207 c-19 -28 -98 -140 -175 -249 -164 -232 -664 -940 -782
-1107 -44 -64 -130 -185 -190 -269 -136 -192 -200 -283 -213 -302 -21 -30
-159 -225 -167 -235 -4 -6 -28 -39 -53 -75 -24 -36 -48 -69 -52 -75 -7 -9
-110 -154 -138 -195 -6 -8 -44 -62 -85 -120 l-75 -105 -171 -460 c-94 -253
-186 -499 -204 -547 -18 -49 -31 -88 -30 -88 2 0 10 6 17 13 7 7 92 84 188
172 96 88 180 164 186 170 13 12 194 179 234 215 15 14 74 67 129 119 56 52
113 103 126 113 23 18 43 57 210 403 40 83 106 220 147 305 42 85 96 198 121
250 24 52 80 167 123 255 43 88 78 162 79 165 0 3 26 57 57 120 31 63 90 187
133 275 42 88 101 210 131 271 30 62 54 116 54 122 0 6 3 12 8 14 4 2 27 46
51 98 24 52 79 167 121 255 43 88 119 245 169 349 50 104 90 190 89 192 -2 1
-19 -21 -38 -49z"/>
</g>
</svg>
